<svg id="svg2" xmlns="http://www.w3.org/2000/svg" viewBox="0 0 615 59"><defs><style>.cls-1{fill:none}.cls-2{clip-path:url(#clip-path)}</style><clipPath id="clip-path"><path class="cls-1" d="M-44.5-20.7h705.3v92H-44.5z"/></clipPath></defs><title>Artboard 1</title><g class="cls-2"><g id="g14"><g id="g20"><path id="path22" d="M357.78 8.74v16c0 10.3 5.4 17.5 19 17.5s19-7.2 19-17.4v-12.9c0-6.2 1.7-7.8 4.8-8.7v-1.7h-12.9v1.7c3 .8 4.8 2.4 4.8 8.7v12.9c0 9-4.7 13.2-13.7 13.2s-13.7-4.1-13.7-13.1V8.74c0-4.1 1.2-4.7 4.5-5.2v-1.8h-16.2v1.8c3.3.4 4.4 1.1 4.4 5.2M416 39.94c-3-.4-3.5-1.2-3.5-4.1v-12.3c2.7-2.4 4.8-3.6 6.8-3.6 2.6 0 3.4 1.3 3.4 3.7v12.2c0 2.9-.5 3.7-3.5 4.1v1.7h13.7v-1.7c-3-.4-3.5-1.2-3.5-4.1v-12.7c0-4.3-1.8-7.3-7.2-7.3-3.3 0-6.6 2-9.8 4.8v-5.1h-2.5l-7.7 5.1v1.2h3.7V36c0 2.9-.5 3.7-3.5 4.1v1.7h13.7zm26.8-28.6a4 4 0 0 0 4-4.1 3.67 3.67 0 0 0-3.6-3.7 4.06 4.06 0 0 0-4.1 4.1 3.69 3.69 0 0 0 3.7 3.7m7.7 28.6c-3.3-.5-3.8-1.2-3.8-4.1v-20.4h-2.6l-7.8 5.1v1.2h3.8v14.1c0 2.9-.5 3.6-3.8 4.1v1.7h14.2zm24.3-16.3c2-4.4 2.6-5.3 4.7-5.9v-1.5H469v1.5c3.5.7 3.8 2.5 2.3 6.2l-4 9.7-5-11.4c-1.1-2.5-.9-3.9 2.8-4.4v-1.7h-14v1.7c1.7.4 2.3 1.1 3.7 4.1l9.2 19.8h2.8zm28 13l-1.4-1.1a7.86 7.86 0 0 1-6.1 2.8c-4.9 0-7.7-3.7-8.7-8.6l16-5.4c-.3-5.7-4.5-8.7-9.8-8.7-7.4 0-12.8 6-12.8 13.4s4.7 13 13 12.9a10.4 10.4 0 0 0 9.8-5.3m-16.7-11.3c0-4.3 1.8-6.9 5.3-6.9 2.5 0 4 1.8 4.6 5.2l-9.9 3.4v-1.7m33.4 14.4c-3.5-.5-3.9-1.3-4-4.6v-11a20.86 20.86 0 0 1 3.1-4.3 3.18 3.18 0 0 0 3.3 3.4c1.8 0 3.6-1.4 3.6-4.2a3.44 3.44 0 0 0-3.7-3.8c-2.6 0-4.6 2.2-6.6 5.3v-5.4h-2.3l-7.7 5.1v1.2h3.7v14.2c0 2.9-.5 3.7-3.5 4.1v1.7h14.1zm27.8-6.2c0-5-4.1-6.5-8-7.7s-6.4-2-6.4-4.8c0-1.5 1.1-2.9 3.3-2.9 2.7 0 5.1 1.6 8 4.9l1.4-.6-2-6.6h-.9l-1 .8a13.5 13.5 0 0 0-5-1c-5.7 0-9.3 3.3-9.3 8.2s4.1 6.4 8 7.7 6.4 2 6.4 4.8c0 1.8-1.3 3.1-3.9 3.1-3.6 0-6.3-2.3-9.6-6.5l-1.4.5 2.1 8.3h.9l1.5-1.1a14.18 14.18 0 0 0 5.9 1.3c5.5 0 10-3.2 10-8.4m9.3-22.4a4 4 0 0 0 4-4.1 3.67 3.67 0 0 0-3.6-3.7 4.06 4.06 0 0 0-4.1 4.1 3.57 3.57 0 0 0 3.7 3.7m7.6 28.6c-3.3-.5-3.8-1.2-3.8-4.1v-20.4h-2.6l-7.8 5.1v1.2h3.8v14.1c0 2.9-.5 3.6-3.8 4.1v1.7h14.2zm20.2-.8l-.8-1.7a10.24 10.24 0 0 1-3.8 1c-2.5 0-3.2-1.3-3.2-3v-16.1h6.8v-3h-6.8v-5h-1l-9.6 6.3v1.7h3.9v17.4c0 3.5 2 5.3 5.9 5.3a14.16 14.16 0 0 0 8.6-2.9m14.3 6.7l10-22.3c2-4.4 2.6-5.3 4.7-5.9v-1.5h-10.5v1.5c3.5.7 3.8 2.5 2.3 6.2l-4 9.7-5-11.4c-1.1-2.5-.9-3.9 2.8-4.4v-1.7h-14v1.7c1.7.4 2.3 1.1 3.7 4.1l8.8 19.3-1.5 3.2c-.9 1.9-1.6 3.3-2.6 4.1-.6-2.2-1.9-3.4-3.8-3.4a3.52 3.52 0 0 0-3.6 3.8 4.37 4.37 0 0 0 4.4 4.4c3.6 0 5.7-1.7 8.3-7.4"/></g><g id="g24"><path id="path26" d="M45.07 12.59c0-6.2 1.7-7.8 4.8-8.7v-1.7H37v1.7c3 .8 4.8 2.4 4.8 8.7v18.8L14.57 4c-1.5-1.5-2.1-1.6-3-1.6H1.47v1.7c2.2.2 3.5 1.1 6 3.5a4.46 4.46 0 0 1 1.6 3.1v21.4c0 6.2-1.7 7.8-4.8 8.7v1.7h12.9v-1.7c-3-.8-4.8-2.4-4.8-8.7V11.89l30.7 30.7h2.2zm34.8 16.7c0-7-4.7-12.8-13.3-12.8s-13.8 6.3-13.8 13.5c0 7 4.7 12.8 13.3 12.8s13.8-6.3 13.8-13.5m-20.4-2.4c0-4.8 2.1-7.8 6.4-7.9 5.7 0 7.3 7 7.3 13.3 0 4.8-2.1 7.8-6.4 7.9-5.6 0-7.3-6.9-7.3-13.3M98 40.49c-3.5-.5-3.9-1.3-4-4.6v-11a20.86 20.86 0 0 1 3.1-4.3 3.18 3.18 0 0 0 3.3 3.4c1.8 0 3.6-1.4 3.6-4.2a3.44 3.44 0 0 0-3.7-3.8c-2.6 0-4.6 2.2-6.5 5.3v-5.4h-2.3L83.77 21v1.2h3.7v14.2c0 2.9-.5 3.7-3.5 4.1v1.7h14.1zm26.1-.7l-.8-1.8a10.24 10.24 0 0 1-3.8 1c-2.5 0-3.1-1.3-3.2-3v-16.1h6.8v-3h-6.8v-5h-1l-9.6 6.3v1.7h3.9v17.4c0 3.5 2 5.3 5.9 5.3a13.45 13.45 0 0 0 8.6-2.8m15.3.7c-3-.4-3.5-1.2-3.5-4.1V24c2.6-2.4 4.5-3.5 6.8-3.5 2.6 0 3.4 1.3 3.4 3.7v12.2c0 2.9-.5 3.7-3.5 4.1v1.7h13.7v-1.7c-3-.4-3.5-1.2-3.5-4.1V23.69c0-4.3-1.8-7.3-7.2-7.3-3.3 0-6.5 1.9-9.6 4.6V-.11h-2l-8.6 5.6v1.2h3.9l.1 29.8c0 2.9-.5 3.7-3.5 4.1v1.7h13.7zm42.5-3.2l-1.4-1.1a7.86 7.86 0 0 1-6.1 2.8c-4.9 0-7.7-3.7-8.7-8.6l16-5.4c-.3-5.7-4.5-8.7-9.8-8.7-7.4 0-12.8 6-12.8 13.4s4.7 13 13 12.9c5 0 8-2.3 9.8-5.3m-16.7-11.4c0-4.3 1.8-6.9 5.3-6.9 2.5 0 4 1.8 4.6 5.2l-9.9 3.5v-1.8m37.8 16.4a11.92 11.92 0 0 0 6.3-2.2l-.5-1.5c-2.6.5-3.6.1-3.6-1.6v-14.2c0-4.3-1.9-6.6-7.9-6.5-6.8 0-11.7 3.6-11.7 7.1a2.83 2.83 0 0 0 3 3 3.44 3.44 0 0 0 3.6-2.9 3.7 3.7 0 0 0-1-3.6 9.9 9.9 0 0 1 4.1-1c2.3 0 3.4.8 3.4 2.9v5.3c-9.5 2.4-13.9 4.5-13.9 9.5 0 3.9 2.5 6 6.5 6a13.17 13.17 0 0 0 7.8-3c.4 1.7 1.6 2.7 3.9 2.7m-11.7-7.1c0-2.7 1.2-4 7.5-5.7v7.7a6.52 6.52 0 0 1-4.2 1.7c-2.1 0-3.3-1.1-3.3-3.7m41-1.1c0-5-4.1-6.5-8-7.7s-6.4-2-6.4-4.8c0-1.5 1.1-2.9 3.3-2.9 2.7 0 5.1 1.6 8 4.9l1.4-.6-2-6.6h-.9l-1 .8a13.5 13.5 0 0 0-5-1c-5.7 0-9.3 3.3-9.3 8.2s4.1 6.4 8 7.7 6.4 2 6.4 4.8c0 1.8-1.3 3.1-3.9 3.1-3.6 0-6.3-2.3-9.6-6.5l-1.4.5 2.1 8.3h.9l1.5-1.1a14.18 14.18 0 0 0 5.9 1.3c5.6 0 10.1-3.2 10-8.4m20.2 5.4l-.8-1.7a10.24 10.24 0 0 1-3.8 1c-2.5 0-3.1-1.3-3.2-3v-16.1h6.8v-3h-6.8v-5h-1l-9.6 6.3v1.7h3.9v17.4c0 3.5 2 5.3 5.9 5.3a13.55 13.55 0 0 0 8.6-2.9m24.6-2.4l-1.4-1.1a7.86 7.86 0 0 1-6.1 2.8c-4.9 0-7.7-3.7-8.7-8.6l16-5.4c-.3-5.7-4.5-8.7-9.8-8.7-7.4 0-12.8 6-12.8 13.4s4.7 13 13 12.9c5 0 8-2.2 9.8-5.3m-16.7-11.3c0-4.3 1.8-6.9 5.3-6.9 2.5 0 4 1.8 4.6 5.2l-9.9 3.4v-1.7m33.4 14.4c-3.5-.5-3.9-1.3-4-4.6v-11a20.86 20.86 0 0 1 3.1-4.3 3.18 3.18 0 0 0 3.3 3.4c1.8 0 3.6-1.4 3.6-4.2a3.44 3.44 0 0 0-3.7-3.8c-2.6 0-4.6 2.2-6.6 5.3v-5.4h-2.3l-7.7 5.1v1.2h3.7v14.2c0 2.9-.5 3.7-3.5 4.1v1.7h14.1zm21.3 0c-3-.4-3.5-1.2-3.5-4.1v-12.3c2.7-2.4 4.8-3.6 6.8-3.6 2.6 0 3.4 1.3 3.4 3.7v12.2c0 2.9-.5 3.7-3.5 4.1v1.7H332v-1.7c-3-.4-3.5-1.2-3.5-4.1v-12.7c0-4.3-1.8-7.3-7.2-7.3-3.3 0-6.6 2-9.8 4.8v-5.1H309l-7.7 5.1v1.2h3.7v14.2c0 2.9-.5 3.7-3.5 4.1v1.7h13.7z"/></g></g></g></svg>